# AST/ASF file generated using VICON BodyLanguage
# -----------------------------------------------
:version 1.10
:name VICON
:units
  mass 1.0
  length 0.45
  angle deg
:documentation
   .ast/.asf automatically generated from VICON data using
   VICON BodyBuilder and BodyLanguage model FoxedUp or BRILLIANT.MOD
:root
   order TX TY TZ RX RY RZ
   axis XYZ
   position 0 0 0  
   orientation 0 0 0 
:bonedata
  begin
     id 1 
     name lhipjoint
     direction 0.645422 -0.672597 0.361999 
     length 2.39934 
     axis 0 0 0  XYZ
  end
  begin
     id 2 
     name lfemur
     direction 0.34202 -0.939693 0  
     length 6.58112  
     axis 0 0 20  XYZ
    dof rx ry rz
    limits (-160.0 20.0)
           (-70.0 70.0)
           (-60.0 70.0)
  end
  begin
     id 3 
     name ltibia
     direction 0.34202 -0.939693 0   
     length 7.02673   
     axis 0 0 20   XYZ
    dof rx
    limits (-10.0 170.0)
  end
  begin
     id 4 
     name lfoot
     direction 0.0835106 -0.229444 0.969733   
     length 2.08772   
     axis -90 7.62852e-016 20   XYZ
    dof rx rz
    limits (-45.0 90.0)
           (-70.0 20.0)
  end
  begin
     id 5 
     name ltoes
     direction 1.5358e-011 -4.21925e-011 1   
     length 1.04844   
     axis -90 7.62852e-016 20   XYZ
    dof rx
    limits (-90.0 20.0)
  end
  begin
     id 6 
     name rhipjoint
     direction -0.644959 -0.672941 0.362185   
     length 2.39812  
     axis 0 0 0  XYZ 
  end
  begin
     id 7 
     name rfemur
     direction -0.34202 -0.939693 0   
     length 6.67015   
     axis 0 0 -20   XYZ
    dof rx ry rz
    limits (-160.0 20.0)
           (-70.0 70.0)
           (-70.0 60.0)
  end
  begin
     id 8 
     name rtibia
     direction -0.34202 -0.939693 0   
     length 7.35735   
     axis 0 0 -20   XYZ
    dof rx
    limits (-10.0 170.0)
 end
 begin
     id 9 
     name rfoot
     direction -0.0670769 -0.184292 0.98058   
     length 2.25469  
     axis -90 -7.62852e-016 -20   XYZ
    dof rx rz
    limits (-45.0 90.0)
           (-20.0 70.0)
  end
  begin
     id 10 
     name rtoes
     direction -1.53575e-011 -4.21908e-011 1   
     length 1.13399   
     axis -90 -7.62852e-016 -20   XYZ
    dof rx
    limits (-90.0 20.0)
  end
  begin
     id 11 
     name lowerback
     direction -0.0188328 0.993434 -0.112847   
     length 2.27656   
     axis 0 0 0   XYZ
    dof rx ry rz
    limits (-20.0 45.0)
           (-30.0 30.0)
           (-30.0 30.0)
  end
  begin
     id 12 
     name upperback
     direction 0.00983139 0.998968 -0.04435   
     length 2.28631   
     axis 0 0 0   XYZ
    dof rx ry rz
    limits (-20.0 45.0)
           (-30.0 30.0)
           (-30.0 30.0)
  end
  begin
     id 13 
     name thorax
     direction 0.0177718 0.999807 0.00833073   
     length 2.30999   
     axis 0 0 0   XYZ
    dof rx ry rz
    limits (-20.0 45.0)
           (-30.0 30.0)
           (-30.0 30.0)
  end
  begin
     id 14 
     name lowerneck
     direction -0.0835025 0.993181 0.0813558   
     length 1.39447   
     axis 0 0 0   XYZ
    dof rx ry rz
    limits (-20.0 45.0)
           (-30.0 30.0)
           (-30.0 30.0)
  end
  begin
     id 15 
     name upperneck
     direction 0.210059 0.976535 0.0474817   
     length 1.39882   
     axis 0 0 0   XYZ
    dof rx ry rz
    limits (-20.0 45.0)
           (-30.0 30.0)
           (-30.0 30.0)
  end
  begin
     id 16
     name head
     direction 0.0780891 0.996944 -0.00207154  
     length 1.41828  
     axis 0 0 0   XYZ
    dof rx ry rz
    limits (-20.0 45.0)
           (-30.0 30.0)
           (-30.0 30.0)
  end
  begin
     id 17 
     name lclavicle
     direction 0.982414 0.166355 -0.0847829  
     length 3.57922  
     axis 0 0 0   XYZ
    dof ry rz
    limits (-20.0 10.0)
           (0.0 20.0)
  end
  begin
     id 18 
     name lhumerus
     direction 1 -4.48975e-011 5.47647e-028   
     length 4.76405   
     axis -180 -30 -90   XYZ
    dof rx ry rz
    limits (-60.0 90.0)
           (-90.0 90.0)
           (-90.0 90.0)
  end
  begin
     id 19
     name lradius
     direction 1 -4.48949e-011 -8.32142e-027   
     length 3.13759   
     axis -180 -30 -90   XYZ
    dof rx
    limits (-10.0 170.0)
  end
  begin
     id 20
     name lwrist
     direction 1 -4.48978e-011 -1.32705e-026   
     length 1.56879   
     axis 9.60836e-015 90 90   XYZ
    dof ry
    limits (-180.0 0.0)
 end
  begin
     id 21 
     name lhand
     direction 1 -4.48975e-011 -2.65409e-026   
     length 0.732262   
     axis 1.69354e-014 90 90   XYZ
    dof rx rz
    limits (-90.0 90.0)
           (-45.0 45.0)
  end
  begin
     id 22 
     name lfingers
     direction 1 -4.48923e-011 -5.30819e-026   
     length 0.590368   
     axis 3.38708e-014 90 90   XYZ
    dof rx
    limits (0.0 90.0)
  end
  begin
     id 23
     name lthumb
     direction 0.707107 -6.34914e-011 0.707107   
     length 0.847654   
     axis -90 45 2.85299e-015   XYZ
    dof rx rz
    limits (-45.0 45.0)
           (-45.0 45.0)
  end
  begin
     id 24 
     name rclavicle
     direction -0.963658 0.245183 -0.106063   
     length 3.43472  
     axis 0 0 0   XYZ 
    dof ry rz
    limits (-10.0 20.0)
           (-20.0 0.0)
  end
  begin
     id 25 
     name rhumerus
     direction -1 -4.48963e-011 -1.64784e-027  
     length 5.10161   
     axis -180 30 90   XYZ
    dof rx ry rz
    limits (-90.0 60.0)
           (-90.0 90.0)
           (-90.0 90.0)
  end
  begin
     id 26 
     name rradius
     direction -1 -4.48969e-011 -2.87943e-027   
     length 3.23267   
     axis -180 30 90   XYZ
    dof rx
    limits (-10.0 170.0)
  end
  begin
     id 27 
     name rwrist
     direction -1 -4.48982e-011 -1.32705e-026   
     length 1.61633   
     axis 9.60836e-015 -90 -90   XYZ
    dof ry
    limits (-180.0 0.0)
  end
  begin
     id 28
     name rhand
     direction -1 -4.48963e-011 -2.65409e-026   
     length 0.702   
     axis 1.69354e-014 -90 -90   XYZ
    dof rx rz
    limits (-90.0 90.0)
           (-45.0 45.0)
  end
  begin
     id 29
     name rfingers
     direction -1 -4.48934e-011 -5.30819e-026   
     length 0.565971   
     axis 3.38708e-014 -90 -90   XYZ
    dof rx
    limits (0.0 90.0)
  end
  begin
     id 30
     name rthumb
     direction -0.707107 -6.34908e-011 0.707107   
     length 0.812624   
     axis -90 -45 -2.85299e-015   XYZ
    dof rx rz
    limits (-45.0 45.0)
           (-45.0 45.0)
  end
:hierarchy
  begin
    root lhipjoint rhipjoint lowerback
    lhipjoint lfemur
    lfemur ltibia
    ltibia lfoot
    lfoot ltoes
    rhipjoint rfemur
    rfemur rtibia
    rtibia rfoot
    rfoot rtoes
    lowerback upperback
    upperback thorax
    thorax lowerneck lclavicle rclavicle
    lowerneck upperneck
    upperneck head
    lclavicle lhumerus
    lhumerus lradius
    lradius lwrist
    lwrist lhand lthumb
    lhand lfingers
    rclavicle rhumerus
    rhumerus rradius
    rradius rwrist
    rwrist rhand rthumb
    rhand rfingers
  end

#!OML:ASF \\sashay\E\basketball\basketball\Project 1\Capture day 1\Session 1\Subject.ASF
:FULLY-SPECIFIED
:DEGREES
113
root -5.04198 12.8756 6.88813 -355.838 58.5658 -379.804
lowerback 29.827 0.841276 -5.55449
upperback 12.336 0.346377 0.0777801
thorax -2.44205 0.253041 3.15759
lowerneck -4.41586 -2.71203 -6.97163
upperneck -22.927 1.44935 25.0408
head -6.0864 -0.0449365 9.68156
rclavicle 3.18055e-014 -8.98507e-014
rhumerus 0.469716 -38.8695 -68.1706
rradius 70.9533
rwrist -56.8511
rhand 1.31768 20.018
rfingers 7.12502
rthumb 26.8519 -8.09529
lclavicle 3.18055e-014 -8.98507e-014
lhumerus -39.0641 21.2193 89.0496
lradius 13.9909
lwrist -13.2362
lhand -16.9172 27.4721
lfingers 7.12502
lthumb 9.31526 57.2463
rfemur -17.8259 -13.9426 7.99717
rtibia 105.02
rfoot -1.88211 -1.364
rtoes -33.0711
lfemur -59.918 6.91535 -42.2311
ltibia 83.8697
lfoot -28.3553 7.18374
ltoes -8.96206
114
root -4.65195 12.8803 7.12895 -355.046 58.6937 -378.639
lowerback 30.3162 0.830365 -5.93108
upperback 12.237 0.191301 -0.146368
thorax -2.75102 0.186115 3.17324
lowerneck -4.65458 -2.71215 -7.2364
upperneck -22.8508 1.45231 25.1206
head -6.01305 -0.00294931 9.75502
rclavicle 3.65764e-014 -2.46493e-014
rhumerus 1.39314 -38.5247 -67.8329
rradius 69.0685
rwrist -58.4776
rhand 2.66621 18.6869
rfingers 7.12502
rthumb 28.1416 -9.22126
lclavicle 3.65764e-014 -2.46493e-014
lhumerus -35.0457 19.6842 89.1617
lradius 14.4402
lwrist -16.7818
lhand -17.4548 24.9939
lfingers 7.12502
lthumb 8.79644 54.7906
rfemur -22.592 -13.8643 7.35261
rtibia 109.23
rfoot -3.29973 -1.63072
rtoes -30.6587
lfemur -57.4702 7.06029 -42.146
ltibia 84.1182
lfoot -28.4013 7.40134
ltoes -14.5947
115
root -4.25651 12.887 7.36961 -354.651 59.0744 -377.843
lowerback 30.8017 0.622625 -5.86506
upperback 12.1445 -0.0933044 -0.422592
thorax -3.04996 0.0735077 2.91916
lowerneck -5.0172 -2.72338 -6.99293
upperneck -22.3521 1.32908 25.0492
head -5.77004 -0.0346546 9.64029
rclavicle -6.36111e-014 -6.36111e-015
rhumerus 2.57061 -38.3692 -67.8976
rradius 67.0363
rwrist -60.2635
rhand 4.04833 16.8839
rfingers 7.12502
rthumb 29.4618 -10.7995
lclavicle -6.36111e-014 -6.36111e-015
lhumerus -31.2796 17.0945 89.3024
lradius 15.4859
lwrist -18.9484
lhand -20.7301 25.7764
lfingers 7.12502
lthumb 5.63495 55.6815
rfemur -27.1614 -13.7751 7.10575
rtibia 112.643
rfoot -5.07738 -2.00802
rtoes -28.3528
lfemur -54.8327 7.34485 -41.9505
ltibia 84.2405
lfoot -28.587 7.26928
ltoes -19.7533
116
root -3.8682 12.8866 7.61149 -354.359 59.5614 -377.495
lowerback 30.9472 0.545262 -6.21666
upperback 11.9998 -0.277433 -0.00764353
thorax -3.24708 -0.0308068 3.64382
lowerneck -5.48737 -2.74703 -7.39633
upperneck -21.7714 1.10994 24.782
head -5.45919 -0.047424 9.57289
rclavicle -6.36111e-014 1.74931e-014
rhumerus 3.99497 -37.3274 -67.0867
rradius 65.2285
rwrist -61.8423
rhand 3.18566 15.0734
rfingers 7.12502
rthumb 28.638 -12.7521
lclavicle -6.36111e-014 1.74931e-014
lhumerus -27.8768 15.175 89.8804
lradius 17.2591
lwrist -21.1182
lhand -22.6007 27.1143
lfingers 7.12502
lthumb 3.82872 57.0597
rfemur -32.3809 -13.3911 7.6248
rtibia 115.456
rfoot -5.43511 -3.53385
rtoes -23.7843
lfemur -52.5556 7.78227 -41.6211
ltibia 84.2945
lfoot -29.3252 5.99156
ltoes -18.8064
117
root -3.49351 12.8714 7.85956 -354.131 60.2253 -377.847
lowerback 30.4901 0.253747 -5.98083
upperback 11.6902 -0.566064 0.265274
thorax -3.37077 -0.170484 3.90215
lowerneck -5.68366 -2.74675 -7.81611
upperneck -21.2033 1.02392 24.989
head -5.22072 -0.03478 9.69504
rclavicle 4.29375e-014 -5.56597e-015
rhumerus 4.85817 -36.0221 -66.3115
rradius 63.9213
rwrist -62.3898
rhand 5.27046 13.7281
rfingers 7.12502
rthumb 30.6279 -13.7436
lclavicle 4.29375e-014 -5.56597e-015
lhumerus -25.7515 13.1774 89.669
lradius 21.0119
lwrist -21.8348
lhand -22.822 27.032
lfingers 7.12502
lthumb 3.61503 56.9811
rfemur -38.8522 -12.7076 9.20471
rtibia 117.817
rfoot -6.52065 -5.50731
rtoes -23.4924
lfemur -51.0633 8.19644 -41.0115
ltibia 84.4975
lfoot -29.6538 4.79162
ltoes -16.899
118
root -3.08956 12.8586 8.11269 -354.738 60.8487 -378.528
lowerback 30.4453 -0.0804621 -5.31217
upperback 11.4499 -0.815303 0.341148
thorax -3.62247 -0.26766 3.68224
lowerneck -5.74551 -2.73394 -7.89698
upperneck -20.5498 0.958029 25.2895
head -4.98894 -0.0463581 9.78371
rclavicle 7.95139e-015 -1.59028e-014
rhumerus 5.69498 -34.9969 -65.9193
rradius 62.7494
rwrist -61.4722
rhand 1.30881 13.9747
rfingers 7.12502
rthumb 26.8434 -14.1398
lclavicle 7.95139e-015 -1.59028e-014
lhumerus -24.3051 8.8001 89.4348
lradius 25.8004
lwrist -18.5502
lhand -24.3925 29.6026
lfingers 7.12502
lthumb 2.09826 59.572
rfemur -44.5481 -11.4241 10.7576
rtibia 119.178
rfoot -7.39391 -7.29445
rtoes -22.8112
lfemur -48.7168 8.99295 -40.0854
ltibia 84.5445
lfoot -29.5537 3.68614
ltoes -15.8517
119
root -2.67988 12.845 8.36839 -354.928 61.7074 -379.01
lowerback 30.0833 -0.430014 -4.81142
upperback 11.178 -1.10744 0.585269
thorax -3.75286 -0.400626 3.75462
lowerneck -5.87459 -2.71097 -7.89913
upperneck -19.9878 0.874416 25.2908
head -4.77823 -0.0573968 9.74934
rclavicle -4.45278e-014 2.62396e-014
rhumerus 6.91996 -34.1163 -65.7067
rradius 61.947
rwrist -59.9834
rhand 1.29919 15.0087
rfingers 7.12502
rthumb 26.8342 -13.1073
lclavicle -4.45278e-014 2.62396e-014
lhumerus -23.5057 3.72175 89.265
lradius 31.5781
lwrist -12.6007
lhand -24.7236 31.977
lfingers 7.12502
lthumb 1.77847 61.9493
rfemur -49.9095 -10.2476 11.9429
rtibia 119.678
rfoot -9.02128 -8.51165
rtoes -24.3568
lfemur -46.5902 9.59805 -39.1969
ltibia 84.43
lfoot -29.0978 3.04061
ltoes -15.3018
120
root -2.25061 12.8328 8.62869 -355.02 62.5087 -379.067
lowerback 29.8833 -0.691189 -4.67267
upperback 11.0082 -1.37516 0.932093
thorax -3.82266 -0.532805 4.14272
lowerneck -6.10818 -2.60767 -7.91159
upperneck -19.4876 0.876946 24.9957
head -4.5907 -0.00695334 9.6103
rclavicle -3.33958e-014 2.3059e-014
rhumerus 8.01038 -33.1842 -65.4418
rradius 62.1403
rwrist -59.2242
rhand 0.808528 13.5892
rfingers 7.12502
rthumb 26.3646 -14.598
lclavicle -3.33958e-014 2.3059e-014
lhumerus -23.047 -0.141571 88.7377
lradius 37.6537
lwrist -6.75704
lhand -25.8205 36.0845
lfingers 7.12502
lthumb 0.719067 66.063
rfemur -54.1451 -9.00719 12.403
rtibia 119.215
rfoot -9.67617 -10.5973
rtoes -20.9942
lfemur -44.0337 10.3437 -38.4096
ltibia 83.9811
lfoot -28.5531 2.67756
ltoes -17.1995
121
root -1.82554 12.8117 8.89689 -354.771 63.3503 -378.599
lowerback 29.8639 -0.92637 -4.75678
upperback 10.8208 -1.68117 1.19435
thorax -3.9793 -0.681199 4.58253
lowerneck -6.23535 -2.44694 -7.66598
upperneck -19.1139 0.981987 24.6406
head -4.48478 0.0675081 9.41007
rclavicle 2.70347e-014 -5.56597e-014
rhumerus 8.71529 -32.6677 -65.164
rradius 62.8903
rwrist -59.002
rhand -3.03105 13.5943
rfingers 7.12502
rthumb 22.6842 -15.0925
lclavicle 2.70347e-014 -5.56597e-014
lhumerus -22.8569 -3.382 87.8505
lradius 43.18
lwrist -2.51662
lhand -27.1977 35.829
lfingers 7.12502
lthumb -0.611034 65.8078
rfemur -57.8389 -7.84226 12.2749
rtibia 118.161
rfoot -11.6871 -11.8161
rtoes -22.2532
lfemur -41.2227 11.0211 -37.6817
ltibia 83.3593
lfoot -27.8847 1.43584
ltoes -20.5602
122
root -1.36817 12.8099 9.16605 -354.673 64.0904 -378.363
lowerback 29.7111 -1.16157 -4.83756
upperback 10.6249 -1.97995 1.53216
thorax -4.07744 -0.83074 5.09933
lowerneck -6.24709 -2.10644 -7.49152
upperneck -18.8074 1.34698 24.1733
head -4.46622 0.271715 9.18985
rclavicle -4.77083e-014 2.3059e-014
rhumerus 9.47616 -32.5286 -65.0124
rradius 63.5202
rwrist -57.3011
rhand 1.69235 15.5575
rfingers 7.12502
rthumb 27.2103 -12.5001
lclavicle -4.77083e-014 2.3059e-014
lhumerus -22.7422 -5.76193 86.7623
lradius 48.5174
lwrist 1.44327
lhand -27.5777 36.4603
lfingers 7.12502
lthumb -0.978073 66.4378
rfemur -62.1375 -6.40792 12.1576
rtibia 116.43
rfoot -12.9494 -12.2321
rtoes -21.0188
lfemur -37.9944 11.7427 -36.6672
ltibia 82.2429
lfoot -27.1154 -0.314234
ltoes -21.298
